Simulation
nRows=23
nColumns=15
endheader
time  TH_x TH_y TH_z SC_y  SC_z  SC_x  AC_y  AC_z  AC_x  GH_y  GH_z  GH_yy  EL_x  PS_y
5.382082397003745  0.000000  0.000000  0.000000  -31.649506797428224  10.055937213716785  16.03315745845292  53.78735768596649  18.361111558573604  10.271581494834932  0.19935318030558133  64.07137301266805  1.012952389940804  13.454726901312105  120.000000
5.422247191011236  0.000000  0.000000  0.000000  -31.611696924090392  9.940554489003269  16.077643036878403  53.833208338392645  18.243184772263216  9.96814464125921  0.3490092430570458  64.17546661216097  0.714776840705857  13.476273847631138  120.000000
5.4624119850187265  0.000000  0.000000  0.000000  -31.45968934860837  9.807500527252927  15.960818932116064  53.87881805117349  18.108245670675167  9.597462701651105  0.5187014866948582  64.04213488352629  0.5056827788986351  13.417514848490574  120.000000
5.502576779026217  0.000000  0.000000  0.000000  -31.196028417644005  9.656416682519309  15.674119621993334  53.9306404333663  17.95133474913479  9.16285588403906  0.7068696714535997  63.655542059583915  0.3765981737280892  13.294342015191463  120.000000
5.542741573033708  0.000000  0.000000  0.000000  -30.826895357691747  9.48543348372546  15.212219080577706  53.995154396210296  17.76651616530286  8.671354028351825  0.9105276834678295  63.00252890331544  0.315980692772568  13.12877538886286  120.000000
5.582906367041199  0.000000  0.000000  0.000000  -30.362254928094167  9.290982248655872  14.573606403184575  54.077240473400664  17.547455131893955  8.13380907656817  1.1267018276882406  62.07457169943955  0.3124661523524767  12.94504553320744  120.000000
5.623071161048689  0.000000  0.000000  0.000000  -29.8160008506751  9.068022662008463  13.761195092465496  54.17877813554866  17.288216568801296  7.564666978434059  1.3535496400360731  60.8695652117686  0.35766222706927714  12.765467291786958  120.000000
5.66323595505618  0.000000  0.000000  0.000000  -29.205762697496535  8.810755452314552  12.782818634198643  54.298038410382794  16.98420654037467  6.981276903772435  1.5909507097127051  59.393202089442326  0.4482557320360256  12.607043116575356  120.000000
5.70340074906367  0.000000  0.000000  0.000000  -28.552229695279923  8.513640978281918  11.651618143580276  54.4299344347237  16.633023223919963  6.4030817753887606  1.8405734969651328  57.659243491499375  0.587123422455364  12.479564659378786  120.000000
5.743565543071161  0.000000  0.000000  0.000000  -27.877830881591535  8.172472962035593  10.38592673401945  54.56700774168169  16.235012368093276  5.850467657859811  2.1054397887312057  55.6887211736255  0.7831014047855025  12.385608896530716  120.000000
5.7837303370786515  0.000000  0.000000  0.000000  -27.205018327729945  7.785492971166851  9.008822578952861  54.70107220992668  15.79349522936508  5.343486635436997  2.3893002194889914  53.50803023155929  1.049830316401698  12.321892740412672  120.000000
5.823895131086142  0.000000  0.000000  0.000000  -26.554356542620415  7.354364979997443  7.546980254321567  54.82499023591711  15.314706005017388  4.9002283174378025  2.69586816636769  51.14664644887782  1.4039516472243179  12.281300357518925  120.000000
5.864059925093633  0.000000  0.000000  0.000000  -25.943337296363467  6.8845861710287  6.029178577298916  54.93381241363062  14.807330413340386  4.535476895426589  3.0276830793768834  48.63465008936252  1.863403636633484  12.25496237915165  120.000000
5.904224719101124  0.000000  0.000000  0.000000  -25.385827624440232  6.385316910801037  4.484799373868913  55.02503806212398  14.281691200546565  4.259676343384185  3.3848406744135002  46.0008103369951  2.4460348220574275  12.233993583603901  120.000000
5.944389513108614  0.000000  0.000000  0.000000  -24.89197915282373  5.868958603979351  2.9427461505948003  55.098445408265384  13.74916645702007  4.078378529997885  3.7639252312795097  43.271510135719645  3.1686317042427024  12.210823925262675  120.000000
5.984554307116105  0.000000  0.000000  0.000000  -24.468316869763143  5.350699652728122  1.4309556370161283  55.15545303320836  13.22182986991385  3.9923044723742347  4.157122867701474  40.47059670142126  4.04643180237475  12.17990791212084  120.000000
6.024719101123596  0.000000  0.000000  0.000000  -24.117761276104744  4.847777700135704  -0.023889239318887097  55.19857569643977  12.712510399589945  3.9974034681218606  4.551513732985275  37.6198956451227  5.093161298829944  12.13851057657746  120.000000
6.064883895131086  0.000000  0.000000  0.000000  -23.83930005878757  4.378713202930305  -1.3966847214172593  55.231685826798035  12.23441159354898  4.08588876288308  4.930274043604793  34.73970547794361  6.320181705310487  12.087257914624253  120.000000
6.1050486891385765  0.000000  0.000000  0.000000  -23.627286696603996  3.9611628984868017  -2.663751800248432  55.26039769854224  11.800026428009508  4.24665606943819  5.274633186866655  31.84927570131244  7.7354058572040705  12.030811225998825  120.000000
6.145213483146067  0.000000  0.000000  0.000000  -23.47282788742479  3.6104513076526086  -3.8034015161512977  55.291319115265146  11.420144618586347  4.466607364063418  5.563645471488195  28.966947425243802  9.344384960374224  11.97774013368205  120.000000
6.185378277153558  0.000000  0.000000  0.000000  -23.366286213361906  3.3391354459119325  -4.797365095853474  55.331049699475095  11.103377733625699  4.7313437371135985  5.774408817194412  26.111365172277473  11.151299166413905  11.93943425183291  120.000000
6.225543071161049  0.000000  0.000000  0.000000  -23.297631233993954  3.1557719120871495  -5.6314907138365555  55.385770604708206  10.856336444845608  5.025919906650414  5.881863327676552  23.30206891040139  13.160566053005725  11.929068889663569  120.000000
6.265707865168539  0.000000  0.000000  0.000000  -23.257671176000443  3.064062697177203  -6.296365028400324  55.46155935103383  10.682848197353573  5.336938469784924  5.8605125460551095  20.55966114536955  15.376505703021806  11.960565672390372  120.000000
